<?xml version="1.0" encoding="iso-8859-1"?><!-- Generator: Adobe Illustrator 19.0.0, SVG Export Plug-In . SVG Version: 6.00 Build 0)  --><svg xmlns="http://www.w3.org/2000/svg" xmlns:xlink="http://www.w3.org/1999/xlink" version="1.1" id="Layer_1" x="0px" y="0px" viewBox="0 0 509.143 509.143" style="enable-background:new 0 0 509.143 509.143;" xml:space="preserve">
<path style="fill:#FCB641;" d="M430.876,179.651c0-99.213-78.936-179.642-176.304-179.642S78.267,80.429,78.267,179.651  c0,50.456,20.474,96.604,53.348,129.229l19.805,80.129h205.943l19.796-79.786C410.238,276.564,430.876,230.287,430.876,179.651z"/>
<path style="fill:#FDC567;" d="M112.591,179.651c0-93.318,69.832-169.972,159.142-178.767C266.078,0.326,260.363,0,254.571,0  C157.203,0,78.267,80.429,78.267,179.651c0,50.456,20.474,96.604,53.348,129.229l19.805,80.129h34.324l-19.805-80.129  C133.065,276.247,112.591,230.098,112.591,179.651z"/>
<polygon style="fill:#E66032;" points="331.971,457.657 177.162,457.657 151.42,389.009 357.363,389.009 "/>
<polygon style="fill:#EB805B;" points="151.42,389.009 177.162,457.657 211.486,457.657 185.743,389.009 "/>
<path style="fill:#FDD38D;" d="M194.736,372.079l-39.859-257.66h10.126c15.763,0,23.254,12.374,29.287,22.036  c5.895,9.456,9.07,13.772,14.725,13.772c5.663,0,8.838-4.05,14.742-13.515c6.024-9.654,13.532-21.624,29.295-21.624  c15.772,0,23.28,12.039,29.321,21.693c5.904,9.456,9.087,13.609,14.759,13.609c5.672,0,8.856-4.496,14.759-13.953  c6.032-9.654,13.541-22.019,29.313-22.019h7.62l1.502,12.966l-37.739,244.875l-16.965-2.523l35.654-231.145  c-1.45,1.939-3.012,4.368-4.831,7.277c-6.032,9.654-13.541,21.684-29.321,21.684c-15.78,0-23.28-12.005-29.313-21.667  c-5.904-9.456-9.096-13.601-14.759-13.601c-5.663,0-8.838,4.145-14.742,13.601c-6.024,9.654-13.532,21.675-29.304,21.675  c-15.763,0-23.263-12.013-29.287-21.676c-1.227-1.965-2.334-3.707-3.381-5.226l35.354,228.983L194.736,372.079z"/>
<circle style="fill:#FEF0D9;" cx="331.8" cy="74.543" r="8.761"/>
<polygon style="fill:#AD4826;" points="177.162,457.657 185.023,474.819 198.4,474.819 198.4,509.143 215.562,509.143   215.562,474.819 249.886,474.819 249.886,509.143 267.048,509.143 267.048,474.819 301.372,474.819 301.372,509.143   318.534,509.143 318.534,474.819 324.111,474.819 331.62,457.657 "/>
<polygon style="fill:#BD6D51;" points="177.162,457.657 185.023,474.819 198.4,474.819 198.4,509.143 215.562,509.143   215.562,474.819 219.346,474.819 211.486,457.657 "/>
<g>
</g>
<g>
</g>
<g>
</g>
<g>
</g>
<g>
</g>
<g>
</g>
<g>
</g>
<g>
</g>
<g>
</g>
<g>
</g>
<g>
</g>
<g>
</g>
<g>
</g>
<g>
</g>
<g>
</g>
</svg>